<mxfile host="app.diagrams.net" agent="Mozilla/5.0 (Windows NT 10.0; Win64; x64) AppleWebKit/537.36 (KHTML, like Gecko) Chrome/130.0.0.0 Safari/537.36" version="24.8.3">
  <diagram name="Pagina-1" id="QbHVdsgaPEJnlOcDtSBr">
    <mxGraphModel dx="859" dy="442" grid="1" gridSize="10" guides="1" tooltips="1" connect="1" arrows="1" fold="1" page="1" pageScale="1" pageWidth="827" pageHeight="1169" math="0" shadow="0">
      <root>
        <mxCell id="0" />
        <mxCell id="1" parent="0" />
        <mxCell id="ESR7KKEEyy94oOYxHQSj-1" value="&lt;font class=&quot;custom-cursor-default-hover&quot; style=&quot;font-size: 13px;&quot;&gt;evento che&amp;nbsp;&lt;/font&gt;&lt;div&gt;&lt;font class=&quot;custom-cursor-default-hover&quot; style=&quot;font-size: 13px;&quot;&gt;genera il task&lt;/font&gt;&lt;/div&gt;" style="ellipse;whiteSpace=wrap;html=1;fillColor=none;" vertex="1" parent="1">
          <mxGeometry x="120" y="205" width="100" height="70" as="geometry" />
        </mxCell>
        <mxCell id="ESR7KKEEyy94oOYxHQSj-2" value="" style="whiteSpace=wrap;html=1;aspect=fixed;fillColor=none;" vertex="1" parent="1">
          <mxGeometry x="320" y="225" width="30" height="30" as="geometry" />
        </mxCell>
        <mxCell id="ESR7KKEEyy94oOYxHQSj-3" value="" style="whiteSpace=wrap;html=1;aspect=fixed;fillColor=none;" vertex="1" parent="1">
          <mxGeometry x="350" y="225" width="30" height="30" as="geometry" />
        </mxCell>
        <mxCell id="ESR7KKEEyy94oOYxHQSj-4" value="" style="whiteSpace=wrap;html=1;aspect=fixed;fillColor=none;" vertex="1" parent="1">
          <mxGeometry x="380" y="225" width="30" height="30" as="geometry" />
        </mxCell>
        <mxCell id="ESR7KKEEyy94oOYxHQSj-5" value="" style="whiteSpace=wrap;html=1;aspect=fixed;fillColor=none;" vertex="1" parent="1">
          <mxGeometry x="410" y="225" width="30" height="30" as="geometry" />
        </mxCell>
        <mxCell id="ESR7KKEEyy94oOYxHQSj-6" value="" style="whiteSpace=wrap;html=1;aspect=fixed;fillColor=none;" vertex="1" parent="1">
          <mxGeometry x="440" y="225" width="30" height="30" as="geometry" />
        </mxCell>
        <mxCell id="ESR7KKEEyy94oOYxHQSj-7" value="ready queue" style="text;html=1;align=center;verticalAlign=middle;whiteSpace=wrap;rounded=0;fillColor=none;" vertex="1" parent="1">
          <mxGeometry x="355" y="255" width="80" height="30" as="geometry" />
        </mxCell>
        <mxCell id="ESR7KKEEyy94oOYxHQSj-8" value="" style="endArrow=classic;html=1;rounded=0;entryX=0;entryY=0.5;entryDx=0;entryDy=0;exitX=1;exitY=0.5;exitDx=0;exitDy=0;fillColor=none;" edge="1" parent="1" source="ESR7KKEEyy94oOYxHQSj-1" target="ESR7KKEEyy94oOYxHQSj-2">
          <mxGeometry width="50" height="50" relative="1" as="geometry">
            <mxPoint x="280" y="300" as="sourcePoint" />
            <mxPoint x="330" y="250" as="targetPoint" />
          </mxGeometry>
        </mxCell>
        <mxCell id="ESR7KKEEyy94oOYxHQSj-9" value="&lt;font style=&quot;font-size: 12px;&quot;&gt;inserimento in coda&lt;/font&gt;" style="text;html=1;align=center;verticalAlign=middle;whiteSpace=wrap;rounded=0;fillColor=none;" vertex="1" parent="1">
          <mxGeometry x="230" y="245" width="80" height="30" as="geometry" />
        </mxCell>
        <mxCell id="ESR7KKEEyy94oOYxHQSj-10" value="&lt;span style=&quot;font-size: 13px;&quot;&gt;scheduler&lt;/span&gt;" style="ellipse;whiteSpace=wrap;html=1;fillColor=none;" vertex="1" parent="1">
          <mxGeometry x="570" y="205" width="100" height="70" as="geometry" />
        </mxCell>
        <mxCell id="ESR7KKEEyy94oOYxHQSj-15" value="" style="endArrow=classic;html=1;rounded=0;entryX=0;entryY=0.5;entryDx=0;entryDy=0;exitX=1;exitY=0.5;exitDx=0;exitDy=0;fillColor=none;" edge="1" parent="1">
          <mxGeometry width="50" height="50" relative="1" as="geometry">
            <mxPoint x="470" y="239.71" as="sourcePoint" />
            <mxPoint x="570" y="239.71" as="targetPoint" />
          </mxGeometry>
        </mxCell>
        <mxCell id="ESR7KKEEyy94oOYxHQSj-16" value="" style="whiteSpace=wrap;html=1;aspect=fixed;fillColor=none;" vertex="1" parent="1">
          <mxGeometry x="390" y="120" width="30" height="30" as="geometry" />
        </mxCell>
        <mxCell id="ESR7KKEEyy94oOYxHQSj-17" value="" style="whiteSpace=wrap;html=1;aspect=fixed;fillColor=none;" vertex="1" parent="1">
          <mxGeometry x="420" y="120" width="30" height="30" as="geometry" />
        </mxCell>
        <mxCell id="ESR7KKEEyy94oOYxHQSj-18" value="" style="whiteSpace=wrap;html=1;aspect=fixed;fillColor=none;" vertex="1" parent="1">
          <mxGeometry x="450" y="120" width="30" height="30" as="geometry" />
        </mxCell>
        <mxCell id="ESR7KKEEyy94oOYxHQSj-19" value="" style="whiteSpace=wrap;html=1;aspect=fixed;fillColor=none;" vertex="1" parent="1">
          <mxGeometry x="480" y="120" width="30" height="30" as="geometry" />
        </mxCell>
        <mxCell id="ESR7KKEEyy94oOYxHQSj-20" value="" style="whiteSpace=wrap;html=1;aspect=fixed;fillColor=none;" vertex="1" parent="1">
          <mxGeometry x="510" y="120" width="30" height="30" as="geometry" />
        </mxCell>
        <mxCell id="ESR7KKEEyy94oOYxHQSj-21" value="blocked queue" style="text;html=1;align=center;verticalAlign=middle;whiteSpace=wrap;rounded=0;fillColor=none;" vertex="1" parent="1">
          <mxGeometry x="425" y="150" width="85" height="30" as="geometry" />
        </mxCell>
        <mxCell id="ESR7KKEEyy94oOYxHQSj-22" value="unità di calcolo" style="rounded=0;whiteSpace=wrap;html=1;fillColor=none;" vertex="1" parent="1">
          <mxGeometry x="760" y="242.5" width="120" height="20" as="geometry" />
        </mxCell>
        <mxCell id="ESR7KKEEyy94oOYxHQSj-23" value="unità di calcolo" style="rounded=0;whiteSpace=wrap;html=1;fillColor=none;" vertex="1" parent="1">
          <mxGeometry x="760" y="217.5" width="120" height="20" as="geometry" />
        </mxCell>
        <mxCell id="ESR7KKEEyy94oOYxHQSj-24" value="unità di calcolo" style="rounded=0;whiteSpace=wrap;html=1;fillColor=none;" vertex="1" parent="1">
          <mxGeometry x="760" y="192.5" width="120" height="20" as="geometry" />
        </mxCell>
        <mxCell id="ESR7KKEEyy94oOYxHQSj-25" value="unità di calcolo" style="rounded=0;whiteSpace=wrap;html=1;fillColor=none;" vertex="1" parent="1">
          <mxGeometry x="760" y="267.5" width="120" height="20" as="geometry" />
        </mxCell>
        <mxCell id="ESR7KKEEyy94oOYxHQSj-27" value="" style="endArrow=classic;html=1;rounded=0;exitX=1;exitY=0.5;exitDx=0;exitDy=0;entryX=0;entryY=0.5;entryDx=0;entryDy=0;fillColor=none;" edge="1" parent="1" source="ESR7KKEEyy94oOYxHQSj-10" target="ESR7KKEEyy94oOYxHQSj-24">
          <mxGeometry width="50" height="50" relative="1" as="geometry">
            <mxPoint x="710" y="270" as="sourcePoint" />
            <mxPoint x="760" y="220" as="targetPoint" />
          </mxGeometry>
        </mxCell>
        <mxCell id="ESR7KKEEyy94oOYxHQSj-28" value="" style="endArrow=classic;html=1;rounded=0;entryX=0;entryY=0.5;entryDx=0;entryDy=0;fillColor=none;" edge="1" parent="1" target="ESR7KKEEyy94oOYxHQSj-23">
          <mxGeometry width="50" height="50" relative="1" as="geometry">
            <mxPoint x="670" y="240" as="sourcePoint" />
            <mxPoint x="760" y="220" as="targetPoint" />
          </mxGeometry>
        </mxCell>
        <mxCell id="ESR7KKEEyy94oOYxHQSj-30" value="" style="endArrow=classic;html=1;rounded=0;entryX=0;entryY=0.5;entryDx=0;entryDy=0;exitX=1;exitY=0.5;exitDx=0;exitDy=0;fillColor=none;" edge="1" parent="1" source="ESR7KKEEyy94oOYxHQSj-10" target="ESR7KKEEyy94oOYxHQSj-22">
          <mxGeometry width="50" height="50" relative="1" as="geometry">
            <mxPoint x="680" y="250" as="sourcePoint" />
            <mxPoint x="770" y="238" as="targetPoint" />
          </mxGeometry>
        </mxCell>
        <mxCell id="ESR7KKEEyy94oOYxHQSj-31" value="" style="endArrow=classic;html=1;rounded=0;entryX=0;entryY=0.5;entryDx=0;entryDy=0;exitX=1;exitY=0.5;exitDx=0;exitDy=0;fillColor=none;" edge="1" parent="1" source="ESR7KKEEyy94oOYxHQSj-10" target="ESR7KKEEyy94oOYxHQSj-25">
          <mxGeometry width="50" height="50" relative="1" as="geometry">
            <mxPoint x="680" y="250" as="sourcePoint" />
            <mxPoint x="770" y="263" as="targetPoint" />
          </mxGeometry>
        </mxCell>
        <mxCell id="ESR7KKEEyy94oOYxHQSj-32" value="dispatching" style="text;html=1;align=center;verticalAlign=middle;whiteSpace=wrap;rounded=0;fillColor=none;" vertex="1" parent="1">
          <mxGeometry x="690" y="285" width="60" height="30" as="geometry" />
        </mxCell>
        <mxCell id="ESR7KKEEyy94oOYxHQSj-33" value="" style="endArrow=classic;html=1;rounded=0;exitX=0.5;exitY=0;exitDx=0;exitDy=0;entryX=1;entryY=0.5;entryDx=0;entryDy=0;curved=1;fillColor=none;" edge="1" parent="1" source="ESR7KKEEyy94oOYxHQSj-10" target="ESR7KKEEyy94oOYxHQSj-20">
          <mxGeometry width="50" height="50" relative="1" as="geometry">
            <mxPoint x="420" y="230" as="sourcePoint" />
            <mxPoint x="470" y="180" as="targetPoint" />
            <Array as="points">
              <mxPoint x="620" y="135" />
            </Array>
          </mxGeometry>
        </mxCell>
        <mxCell id="ESR7KKEEyy94oOYxHQSj-34" value="risorsa occupata" style="text;html=1;align=center;verticalAlign=middle;whiteSpace=wrap;rounded=0;fillColor=none;" vertex="1" parent="1">
          <mxGeometry x="610" y="120" width="60" height="30" as="geometry" />
        </mxCell>
        <mxCell id="ESR7KKEEyy94oOYxHQSj-35" value="" style="endArrow=classic;html=1;rounded=0;entryX=0.5;entryY=0;entryDx=0;entryDy=0;exitX=0;exitY=0.5;exitDx=0;exitDy=0;curved=1;fillColor=none;" edge="1" parent="1" source="ESR7KKEEyy94oOYxHQSj-16" target="ESR7KKEEyy94oOYxHQSj-2">
          <mxGeometry width="50" height="50" relative="1" as="geometry">
            <mxPoint x="420" y="230" as="sourcePoint" />
            <mxPoint x="470" y="180" as="targetPoint" />
            <Array as="points">
              <mxPoint x="335" y="135" />
            </Array>
          </mxGeometry>
        </mxCell>
        <mxCell id="ESR7KKEEyy94oOYxHQSj-36" value="risorsa liberata" style="text;html=1;align=center;verticalAlign=middle;whiteSpace=wrap;rounded=0;fillColor=none;" vertex="1" parent="1">
          <mxGeometry x="295" y="120" width="60" height="30" as="geometry" />
        </mxCell>
        <mxCell id="ESR7KKEEyy94oOYxHQSj-37" value="" style="endArrow=classic;html=1;rounded=0;exitX=0.5;exitY=1;exitDx=0;exitDy=0;entryX=0.5;entryY=1;entryDx=0;entryDy=0;curved=1;fillColor=none;" edge="1" parent="1" source="ESR7KKEEyy94oOYxHQSj-10" target="ESR7KKEEyy94oOYxHQSj-2">
          <mxGeometry width="50" height="50" relative="1" as="geometry">
            <mxPoint x="440" y="320" as="sourcePoint" />
            <mxPoint x="490" y="270" as="targetPoint" />
            <Array as="points">
              <mxPoint x="620" y="320" />
              <mxPoint x="335" y="320" />
            </Array>
          </mxGeometry>
        </mxCell>
        <mxCell id="ESR7KKEEyy94oOYxHQSj-38" value="preemption" style="text;html=1;align=center;verticalAlign=middle;whiteSpace=wrap;rounded=0;fillColor=none;" vertex="1" parent="1">
          <mxGeometry x="440" y="320" width="80" height="30" as="geometry" />
        </mxCell>
      </root>
    </mxGraphModel>
  </diagram>
</mxfile>
